{"title":"Kung Fu Panda 2008 DVDRip Xvid LKRG","uid":6531062,"size":930886533,"categoryP":"video","categoryS":"movies","magnet":"?xt=urn:btih:ca2dcee2d1abe729705c99bf0146b714474bdc83&amp;dn=Kung+Fu+Panda+2008+DVDRip+Xvid+LKRG&amp;tr=udp%3A%2F%2Ftracker.openbittorrent.com%3A80&amp;tr=udp%3A%2F%2Fopen.demonii.com%3A1337&amp;tr=udp%3A%2F%2Ftracker.coppersurfer.tk%3A6969&amp;tr=udp%3A%2F%2Fexodus.desync.com%3A6969","seeders":2,"leechers":0,"uploader":".BONE.","files":2,"time":1310352267,"description":"\nPLOT\n\nIn the Valley of Peace, Po the Panda finds himself chosen as the Dragon Warrior despite the fact that he is\nobese and a complete novice at martial arts.\n &lt;a href=&quot;\nhttp://www.imdb.com/title/tt0441773/&quot; rel=&quot;nofollow&quot; target=&quot;_NEW&quot;&gt;\nhttp://www.imdb.com/title/tt0441773/&lt;/a&gt;\n\nEncoded By .......: BigPerm1828\nRuntime ..........: 1h 32mn\nFile Size ........: 888 MB\nResolution .......: 704x396\nIMDb URL .........: http://www.imdb.com/title/tt0441773/\nGenre ............: Animation,Action,Adventure\nLanguage .........: English\nVideo\nID : 0\nFormat : MPEG-4 Visual\nFormat profile : Advanced Simple@L5\nFormat settings, BVOP : Yes\nFormat settings, QPel : No\nFormat settings, GMC : No warppoints\nFormat settings, Matrix : Default (H.263)\nCodec ID : XVID\nCodec ID/Hint : XviD\nDuration : 1h 32mn\nBit rate : 895 Kbps\nWidth : 704 pixels\nHeight : 396 pixels\nDisplay aspect ratio : 16:9\nFrame rate : 23.976 fps\nColor space : YUV\nChroma subsampling : 4:2:0\nBit depth : 8 bits\nScan type : Progressive\nCompression mode : Lossy\nBits/(Pixel*Frame) : 0.134\nStream size : 589 MiB (66%)\nWriting library : XviD 1.2.1 (UTC 2008-12-04)\n\nAudio\nID : 1\nFormat : AC-3\nFormat/Info : Audio Coding 3\nMode extension : CM (complete main)\nCodec ID : 2000\nDuration : 1h 32mn\nBit rate mode : Constant\nBit rate : 448 Kbps\nChannel(s) : 6 channels\nChannel positions : Front: L C R, Side: L R, LFE\nSampling rate : 48.0 KHz\nBit depth : 16 bits\nCompression mode : Lossy\nVideo delay : 42ms\nStream size : 295 MiB (33%)\nAlignment : Split accross interleaves\nInterleave, duration : 500 ms (11.99 video frames)\nInterleave, preload duration : 500 ms\n &lt;a href=&quot;\nhttp://leetleech.org/images/69474382479884772412.png&quot; rel=&quot;nofollow&quot; target=&quot;_NEW&quot;&gt;\nhttp://leetleech.org/images/69474382479884772412.png&lt;/a&gt;\n &lt;a href=&quot;\nhttp://leetleech.org/images/90324638179750586697.png&quot; rel=&quot;nofollow&quot; target=&quot;_NEW&quot;&gt;\nhttp://leetleech.org/images/90324638179750586697.png&lt;/a&gt;\n &lt;a href=&quot;\nhttp://leetleech.org/images/02613422259424021373.png&quot; rel=&quot;nofollow&quot; target=&quot;_NEW&quot;&gt;\nhttp://leetleech.org/images/02613422259424021373.png&lt;/a&gt;\n &lt;a href=&quot;\nhttp://leetleech.org/images/24638757811640252400.png&quot; rel=&quot;nofollow&quot; target=&quot;_NEW&quot;&gt;\nhttp://leetleech.org/images/24638757811640252400.png&lt;/a&gt;\n\n","torrent":{"xt":"urn:btih:ca2dcee2d1abe729705c99bf0146b714474bdc83","amp;dn":"Kung+Fu+Panda+2008+DVDRip+Xvid+LKRG","amp;tr":["udp%3A%2F%2Ftracker.openbittorrent.com%3A80","udp%3A%2F%2Fopen.demonii.com%3A1337","udp%3A%2F%2Ftracker.coppersurfer.tk%3A6969","udp%3A%2F%2Fexodus.desync.com%3A6969"],"infoHash":"ca2dcee2d1abe729705c99bf0146b714474bdc83","infoHashBuffer":{"type":"Buffer","data":[202,45,206,226,209,171,231,41,112,92,153,191,1,70,183,20,71,75,220,131]},"announce":[],"urlList":[]}}